<?xml version="1.0" encoding="UTF-8" standalone="no"?>
<!DOCTYPE svg PUBLIC "-//W3C//DTD SVG 1.1//EN"
 "http://www.w3.org/Graphics/SVG/1.1/DTD/svg11.dtd">
<!-- Generated by graphviz version 2.40.1 (20161225.0304)
 -->
<!-- Title: graphname Pages: 1 -->
<svg width="173pt" height="158pt"
 viewBox="0.00 0.00 173.44 158.00" xmlns="http://www.w3.org/2000/svg" xmlns:xlink="http://www.w3.org/1999/xlink">
<g id="graph0" class="graph" transform="scale(1 1) rotate(0) translate(4 154)">
<title>graphname</title>
<polygon fill="#ffffff" stroke="transparent" points="-4,4 -4,-154 169.4434,-154 169.4434,4 -4,4"/>
<!-- dat_wgs -->
<g id="node1" class="node">
<title>dat_wgs</title>
<polygon fill="none" stroke="#000000" points="33.1642,-150 -.0549,-150 -.0549,-128 33.1642,-128 33.1642,-150"/>
<text text-anchor="start" x="7" y="-140.6" font-family="Sans serif" font-size="8.00" fill="#000000">WGS</text>
<text text-anchor="start" x="9.2173" y="-134.2" font-family="Sans serif" font-size="6.00" fill="#0000ff">.fastd</text>
</g>
<!-- proc_gwas -->
<g id="node5" class="node">
<title>proc_gwas</title>
<polygon fill="none" stroke="#000000" points="84.9365,-92 10.1728,-92 10.1728,-58 84.9365,-58 84.9365,-92"/>
<text text-anchor="start" x="17.3643" y="-73" font-family="Sans serif" font-size="20.00" fill="#000000">GWAS</text>
<text text-anchor="start" x="38.5503" y="-64.2" font-family="Sans serif" font-size="6.00" fill="#ff0000">pyseer</text>
</g>
<!-- dat_wgs&#45;&gt;proc_gwas -->
<g id="edge1" class="edge">
<title>dat_wgs&#45;&gt;proc_gwas</title>
<path fill="none" stroke="#000000" d="M21.9545,-127.8521C26.7423,-117.9676 33.8073,-103.3816 39.3032,-92.0353"/>
</g>
<!-- dat_pheno -->
<g id="node2" class="node">
<title>dat_pheno</title>
<polygon fill="none" stroke="#000000" points="107.8092,-150 51.3002,-150 51.3002,-128 107.8092,-128 107.8092,-150"/>
<text text-anchor="start" x="58.4277" y="-140.6" font-family="Sans serif" font-size="8.00" fill="#000000">Phenotypes</text>
<text text-anchor="start" x="74.8877" y="-134.2" font-family="Sans serif" font-size="6.00" fill="#0000ff">.tsv</text>
</g>
<!-- dat_pheno&#45;&gt;proc_gwas -->
<g id="edge2" class="edge">
<title>dat_pheno&#45;&gt;proc_gwas</title>
<path fill="none" stroke="#000000" d="M73.9807,-127.8521C69.0385,-117.9676 61.7455,-103.3816 56.0723,-92.0353"/>
</g>
<!-- dat_kmers -->
<g id="node3" class="node">
<title>dat_kmers</title>
<polygon fill="none" stroke="#000000" points="165.3327,-150 125.7767,-150 125.7767,-128 165.3327,-128 165.3327,-150"/>
<text text-anchor="start" x="132.666" y="-140.6" font-family="Sans serif" font-size="8.00" fill="#000000">K&#45;mers</text>
<text text-anchor="start" x="141.5527" y="-134.2" font-family="Sans serif" font-size="6.00" fill="#0000ff">.gz</text>
</g>
<!-- dat_assoc -->
<g id="node4" class="node">
<title>dat_assoc</title>
<polygon fill="none" stroke="#000000" points="76.9649,-22 18.1445,-22 18.1445,0 76.9649,0 76.9649,-22"/>
<text text-anchor="start" x="25.0996" y="-12.6" font-family="Sans serif" font-size="8.00" fill="#000000">Associations</text>
<text text-anchor="start" x="42.8877" y="-6.2" font-family="Sans serif" font-size="6.00" fill="#0000ff">.tsv</text>
</g>
<!-- proc_gwas&#45;&gt;dat_assoc -->
<g id="edge3" class="edge">
<title>proc_gwas&#45;&gt;dat_assoc</title>
<path fill="none" stroke="#000000" d="M47.5547,-57.8492C47.5547,-50.0227 47.5547,-40.6735 47.5547,-32.3928"/>
<polygon fill="#000000" stroke="#000000" points="51.0548,-32.3405 47.5547,-22.3406 44.0548,-32.3406 51.0548,-32.3405"/>
</g>
</g>
</svg>
